<svg width="46" height="52" viewBox="0 0 46 52" fill="none" xmlns="http://www.w3.org/2000/svg">
<path d="M12.3542 23.2702L17.7179 15.727C15.4884 15.3553 11.3945 15.2729 8.04096 18.6271C2.7548 23.9142 0.613956 35.3358 0.167649 38.1006L13.6025 51.5381C16.021 51.331 26.7292 49.9011 37.0472 39.581C37.1568 39.3582 39.6701 37.5006 37.6152 35.4454C36.6344 34.4644 35.0109 34.4827 34.0088 35.4849C33.4986 35.9952 32.7052 36.0027 32.2056 35.503C31.706 35.0034 31.7135 34.2097 32.2237 33.6995L35.8697 30.0528C37.7226 28.1995 35.976 25.0731 33.3901 25.8241L30.405 28.38C29.8599 28.8553 29.0497 28.773 28.6017 28.2551C28.1387 27.7188 28.2377 26.907 28.7645 26.45C39.1913 17.3 37.6693 18.402 44.3772 12.1131C46.8836 10.0259 43.7308 6.33401 41.261 8.44786L25.0331 23.0436C24.5611 23.4458 23.8375 23.4534 23.3729 23.0253C22.8368 22.5622 22.8245 21.895 23.1749 21.3679L34.4942 3.76738C36.1488 1.52625 32.8924 -0.962843 31.1497 1.2965L14.4134 24.7082C14.0098 25.2918 13.1965 25.4257 12.6421 25.0175C12.0861 24.6443 11.9339 23.8338 12.3542 23.2702Z" fill="#3B4262"/>
</svg>
