<svg width="44" height="53" viewBox="0 0 44 53" fill="none" xmlns="http://www.w3.org/2000/svg">
<path d="M41.9754 10.8367C41.6095 10.6963 41.2285 10.6354 40.8769 10.66C40.3688 10.6955 39.9585 10.9028 39.7154 11.242C38.2836 13.257 37.1109 17.0625 36.1652 20.1201C35.7312 21.5341 35.1486 23.4264 34.7267 24.3245C34.2866 21.8084 34.7837 12.5913 34.9765 9.04167L34.9797 8.98434C35.1134 6.51823 35.1314 6.08581 35.102 5.89589C34.8897 4.54311 34.35 3.65514 33.4975 3.25768C32.6357 2.85461 31.5165 3.03294 30.3107 3.76183C29.7063 4.12907 29.5391 5.38968 29.0202 11.1035L29.0183 11.1287C28.7326 14.2678 28.075 21.4957 27.2657 22.6994C26.3526 21.0153 25.0965 11.4467 24.5542 7.30496C24.1748 4.40426 23.9538 2.73875 23.8053 2.23582C23.4925 1.18198 22.1721 0.285252 20.8647 0.235568C19.7765 0.181316 18.8836 0.737423 18.4575 1.70369C17.6603 2.59499 17.9419 5.55074 18.8232 12.5513C19.2426 15.883 20.1084 22.7651 19.5635 23.537C18.4771 23.4184 16.6119 19.1076 14.0191 10.7207C13.2917 8.37194 13.0666 7.66549 12.8431 7.35626C12.4027 6.27916 10.9059 5.44837 9.56388 5.54223C9.44926 5.55025 9.33786 5.56518 9.22778 5.58628C8.52529 5.72645 6.92224 6.37605 7.26393 9.37395C8.21058 13.5302 9.23877 16.5819 10.2366 19.5438L10.2568 19.6031C10.8539 21.3772 11.4183 23.0535 11.9428 24.9138C13.179 29.3061 12.6983 32.0312 12.6924 32.062C12.6513 32.3425 12.5651 32.5137 12.4355 32.5736C12.3888 32.5956 12.329 32.6087 12.2616 32.6134C11.8699 32.6408 11.2822 32.3802 10.9793 32.2103C10.2876 30.8822 6.84339 24.5518 3.72247 23.6738L3.61035 23.6406L3.49689 23.6511C2.35222 23.7597 1.51056 24.1944 0.996195 24.9428C0.18109 26.1264 0.518493 27.6339 0.600343 27.9361L0.646349 28.0444C0.671824 28.09 3.17462 32.6739 3.56197 34.8063C3.896 36.6345 5.62413 38.6158 7.01352 40.2078L7.07075 40.2725C7.52398 40.7934 7.91517 41.2436 8.22364 41.6603C12.2551 45.8847 18.6308 49.4382 18.6828 49.4667C19.4783 50.0565 19.9206 50.6263 19.9673 51.1168C19.9969 51.4379 19.8309 51.6299 19.8251 51.6364L19.6863 51.7819L20.5676 52.6424L37.3883 51.4552L38.1054 48.1539C40.323 38.8297 39.8601 30.8795 39.8527 30.8265C39.8608 30.534 40.4824 27.7053 40.9822 25.4198L40.9969 25.3617C41.9933 20.8088 43.2324 15.1436 43.47 12.9889C43.5734 12.0677 42.9867 11.2213 41.9754 10.8367Z" fill="#3B4262"/>
</svg>
